PathFileType	4	(X/Y/Z)	./resultDataOpenSim/trcMotMarkerGrf/sub06/qtm-12-03.trc
DataRate	CameraRate	NumFrames	NumMarkers	Units	OrigDataRate	OrigDataStartFrame	OrigNumFrames
250.000000	250.000000	13	24	m	250.000000	458	523
Frame#	Time	L.Toe.Tip			R.Toe.Tip			L.Ankle.Lat			R.Ankle.Lat			L.Ankle.Med			R.Ankle.Med			L.Heel			R.Heel			L.Knee.Lat			R.Knee.Lat			L.Knee.Med			R.Knee.Med			L.Thigh.Upper			R.Thigh.Upper			L.ASIS			R.ASIS			V.Sacral			L.Acromium			R.Acromium			C7			L.Elbow			R.Elbow			L.Wrist.Lat			R.Wrist.Lat
		X1	Y1	Z1	X2	Y2	Z2	X3	Y3	Z3	X4	Y4	Z4	X5	Y5	Z5	X6	Y6	Z6	X7	Y7	Z7	X8	Y8	Z8	X9	Y9	Z9	X10	Y10	Z10	X11	Y11	Z11	X12	Y12	Z12	X13	Y13	Z13	X14	Y14	Z14	X15	Y15	Z15	X16	Y16	Z16	X17	Y17	Z17	X18	Y18	Z18	X19	Y19	Z19	X20	Y20	Z20	X21	Y21	Z21	X22	Y22	Z22	X23	Y23	Z23	X24	Y24	Z24

458	1.828	1.621285	0.033358776	-0.044433704	1.7289252	0.060803908	0.17156964	1.4955888	0.077210411	-0.064047852	1.6039136	0.12268987	0.16901881	1.4985019	0.091908253	0.021336031	1.6477304	0.1327748	0.086282328	1.4227571	0.053302023	-0.017579578	1.5596492	0.1052889	0.10005727	1.57178	0.44263522	-0.077187012	1.734885	0.49286697	0.18651063	1.5451038	0.44814476	0.044568072	1.7193446	0.4776225	0.060625856	1.5788319	0.83579634	-0.14005951	1.5765283	0.83025556	0.20664697	1.6495438	0.88910447	-0.09261466	1.6465109	0.89710616	0.14966117	1.4566137	0.95047342	0.029775791	1.585021	1.366936	-0.16045011	1.5489723	1.3577204	0.19916064	1.4879526	1.3952367	0.0095137115	1.587727	1.0391493	-0.21585086	1.4467153	1.0521963	0.24999902	1.8186634	0.93392635	-0.1943321	1.5675355	0.84619453	0.30249363
459	1.832	1.621316	0.033338239	-0.04450135	1.7473364	0.06108022	0.17094747	1.4956722	0.077511506	-0.063845769	1.6205975	0.11886298	0.16885819	1.4988481	0.092255904	0.021511608	1.6642241	0.130244	0.085872574	1.4229224	0.053771071	-0.017146642	1.5765173	0.10024334	0.099852015	1.5728126	0.44260875	-0.077332085	1.7409025	0.49321822	0.18574374	1.5469623	0.44816866	0.044581973	1.7245711	0.47750997	0.060083966	1.5827392	0.83562515	-0.13992406	1.5817496	0.83046135	0.2066934	1.6540017	0.88879363	-0.092597368	1.651976	0.89704849	0.1493585	1.4620911	0.95044976	0.031183586	1.5900423	1.3671311	-0.16024406	1.554032	1.3573987	0.19940464	1.4929906	1.395169	0.009721186	1.5952275	1.0393239	-0.21655794	1.4495578	1.0528975	0.24992672	1.8280681	0.93856936	-0.19260865	1.5659195	0.84529696	0.3045687
460	1.836	1.6213391	0.03331825	-0.044562214	1.7657408	0.061571917	0.17029825	1.4957465	0.077793118	-0.063656586	1.637506	0.11514224	0.16872754	1.4992084	0.092572303	0.021677271	1.679673	0.12810643	0.085997383	1.4230783	0.054224724	-0.016723982	1.5932469	0.095578416	0.099555079	1.5739252	0.4425575	-0.077467381	1.7467589	0.49337458	0.18503909	1.5488383	0.44816852	0.044570221	1.7295898	0.47723473	0.059580912	1.586632	0.83562065	-0.13991234	1.5866034	0.83052162	0.20665513	1.6582806	0.88845201	-0.093004405	1.657472	0.89686228	0.14907408	1.4674746	0.95038263	0.032493589	1.5950458	1.3672463	-0.16002662	1.559084	1.3570206	0.19966568	1.4980333	1.3950418	0.009952802	1.6026816	1.0393978	-0.21726843	1.4524181	1.0535726	0.24989323	1.8373457	0.94316657	-0.19088932	1.5643285	0.8444769	0.30659266
461	1.84	1.621356	0.033300428	-0.044614828	1.7841192	0.062287415	0.16961079	1.4958148	0.078053608	-0.063477053	1.6545611	0.11150979	0.16862694	1.4995787	0.092846281	0.021831751	1.6948052	0.12612475	0.086371249	1.4232109	0.054662054	-0.016306886	1.6099976	0.091242776	0.099145426	1.5751272	0.4424905	-0.077594054	1.7524544	0.49332613	0.18438949	1.5507312	0.44814871	0.044535258	1.7344356	0.47678768	0.059116514	1.5904927	0.83556553	-0.13997898	1.5914763	0.83044139	0.20662234	1.662598	0.88794884	-0.093747715	1.6629918	0.89655007	0.14880903	1.4727368	0.95025333	0.033622862	1.6000277	1.3672804	-0.15979601	1.5640747	1.3565977	0.19993074	1.5030798	1.3948576	0.010201057	1.610124	1.0394011	-0.21796366	1.4552873	1.0542208	0.24989717	1.8464799	0.94771291	-0.18917797	1.5627821	0.84372964	0.30856551
462	1.844	1.6213669	0.033284067	-0.044661068	1.8024455	0.063235328	0.16887016	1.495879	0.078291192	-0.06329957	1.671671	0.10794258	0.16855458	1.4999151	0.093079338	0.021983489	1.7103232	0.12411955	0.08662326	1.4233251	0.055073171	-0.01590477	1.6269001	0.087085275	0.098764838	1.5764553	0.44241425	-0.077711237	1.7579825	0.49307342	0.18378446	1.5526742	0.44810943	0.04447918	1.7391829	0.47614819	0.058667937	1.594338	0.83534153	-0.14007305	1.5966785	0.83023045	0.20666172	1.6674157	0.88705433	-0.094307221	1.6685221	0.89611882	0.14856165	1.4778958	0.95002104	0.034571133	1.6049888	1.3672377	-0.1595542	1.5690113	1.3561329	0.20019815	1.5081237	1.3946126	0.010463463	1.6176017	1.0393443	-0.21864828	1.4581692	1.0548251	0.24992911	1.8554779	0.95220543	-0.18747832	1.5613047	0.84305408	0.3104837
463	1.848	1.6213709	0.033267788	-0.044704413	1.8206906	0.064421904	0.16806634	1.4959382	0.078504168	-0.063117215	1.6888324	0.10446144	0.168518	1.5001694	0.093280497	0.022143758	1.7262477	0.12214682	0.08663948	1.4234357	0.0554469	-0.01553287	1.6439847	0.082997247	0.09855377	1.5779718	0.44232879	-0.077815383	1.7633354	0.49262386	0.18321169	1.5547185	0.44804732	0.044400333	1.7438619	0.47530642	0.058225083	1.5981975	0.83496738	-0.14017953	1.602211	0.82988732	0.20676765	1.672696	0.88570342	-0.094439308	1.6740577	0.89558107	0.14832636	1.4829942	0.94965086	0.035331682	1.6099336	1.3671238	-0.15930714	1.5739409	1.3556205	0.2004758	1.5131585	1.3942977	0.010740929	1.6251752	1.0391984	-0.21939821	1.4610668	1.0553874	0.24996606	1.864353	0.95664107	-0.18579169	1.5599202	0.84244882	0.31234424
464	1.852	1.6213685	0.033251512	-0.044746309	1.8388176	0.065845351	0.16720441	1.4959909	0.078691358	-0.062929524	1.7060854	0.10114193	0.16853683	1.5003315	0.093456271	0.022314222	1.7422657	0.120348	0.086524691	1.4235463	0.055781823	-0.015201351	1.6611863	0.079003655	0.098536629	1.5796969	0.44222592	-0.077905971	1.7685124	0.49198666	0.18266	1.5569002	0.44795839	0.044297362	1.748448	0.47426127	0.057794323	1.6020813	0.83450002	-0.14028883	1.6079022	0.82941062	0.20689745	1.677677	0.8842496	-0.094543232	1.6796103	0.89494981	0.14809626	1.488106	0.94914882	0.035922033	1.6148658	1.3669422	-0.15905516	1.5788966	1.355053	0.20076817	1.5181833	1.3939059	0.011033078	1.6329038	1.038901	-0.22036404	1.4639789	1.0559252	0.24998955	1.8731122	0.96101221	-0.18411757	1.5586431	0.84190931	0.31414732
465	1.856	1.6213622	0.033235586	-0.04478541	1.8567807	0.067494346	0.16630517	1.4960382	0.078853625	-0.062744171	1.7234044	0.098071033	0.16863261	1.5004389	0.093607174	0.022484016	1.758135	0.11881577	0.086407694	1.4236476	0.056088047	-0.014912231	1.6783902	0.075198622	0.098676449	1.5815346	0.44208956	-0.077992064	1.7735347	0.49116787	0.18212289	1.5592015	0.44784168	0.04418146	1.7529158	0.47301138	0.057381771	1.6059542	0.83398149	-0.14036545	1.6136112	0.82881461	0.20701905	1.6818188	0.88323702	-0.095058025	1.6851958	0.8942336	0.14786729	1.4932948	0.9485527	0.036404334	1.6197848	1.3666948	-0.15878974	1.5838778	1.3544271	0.20107269	1.5232009	1.3934389	0.011339125	1.6407986	1.0383979	-0.22167402	1.4669092	1.0564353	0.25000158	1.8817528	0.96531072	-0.18245642	1.5574684	0.84142884	0.31589857
466	1.86	1.621353	0.033219725	-0.044818955	1.8745361	0.069359735	0.1653929	1.4960862	0.078995391	-0.062574287	1.7406907	0.095311047	0.16881469	1.5005439	0.093731969	0.02263909	1.7737706	0.1175679	0.086355847	1.4237284	0.056379407	-0.014661062	1.6955014	0.071655774	0.09893438	1.5833326	0.44190198	-0.078086713	1.7784492	0.49017098	0.18159889	1.5615634	0.4476965	0.044071044	1.7572844	0.47155403	0.056975071	1.6097351	0.83343633	-0.14033621	1.6192856	0.82811892	0.20712256	1.6854179	0.88286291	-0.095935745	1.6908101	0.89343596	0.14764093	1.498547	0.94788216	0.036852987	1.6246877	1.366383	-0.15850309	1.5888664	1.3537448	0.2013875	1.5282111	1.3929022	0.011661328	1.6487721	1.0377093	-0.22324975	1.469867	1.0568912	0.25001583	1.890269	0.96953356	-0.18080984	1.5563786	0.8410019	0.31760503
467	1.864	1.6213396	0.033203464	-0.044843915	1.8920483	0.071440946	0.16448199	1.496145	0.079122138	-0.062432646	1.7578219	0.092902855	0.1690746	1.5006748	0.093830777	0.022772102	1.7891754	0.1165794	0.086390818	1.4237831	0.056663318	-0.014441243	1.712475	0.068410073	0.099279848	1.5850367	0.44165266	-0.078193584	1.7833061	0.48900426	0.18108939	1.5639443	0.44751498	0.043973262	1.7616126	0.46989004	0.056541998	1.613346	0.83287737	-0.14012657	1.6249352	0.8273254	0.20721202	1.689044	0.8828292	-0.096870847	1.6964246	0.89255816	0.14742181	1.5037798	0.94711164	0.037329042	1.6295735	1.3660075	-0.15819377	1.5938392	1.3530149	0.20171409	1.5332094	1.392298	0.012001211	1.6566498	1.0369527	-0.22474091	1.4728588	1.0572767	0.25004223	1.8986598	0.9736797	-0.17917903	1.5553645	0.84062392	0.31926958
468	1.868	1.6213204	0.033186714	-0.044858138	1.9092915	0.073735253	0.16357571	1.4962222	0.079235926	-0.062323632	1.7746941	0.090882044	0.16939631	1.5008256	0.093904586	0.02288552	1.8043583	0.11581908	0.086512757	1.4238172	0.05693615	-0.014251576	1.7292814	0.065479792	0.09970892	1.5867377	0.44134047	-0.078303158	1.7881279	0.48768357	0.18059388	1.566338	0.44728293	0.043888386	1.7659621	0.4680264	0.056048071	1.6168102	0.83230058	-0.13974966	1.6305973	0.82642061	0.20729412	1.6929535	0.88270988	-0.097661325	1.7020157	0.89160483	0.14721144	1.5089402	0.94620418	0.037873299	1.6344438	1.3655671	-0.15786198	1.5987706	1.352249	0.2020525	1.5381907	1.3916226	0.012354943	1.6642871	1.0362619	-0.22578041	1.4758831	1.0576017	0.25008448	1.9069291	0.97774346	-0.17756351	1.5544304	0.84028742	0.32089387
469	1.872	1.621297	0.033169217	-0.044861202	1.9262489	0.076238408	0.16267269	1.496319	0.079335931	-0.062240193	1.7912596	0.089277906	0.16977297	1.5009756	0.093955055	0.022987808	1.8193101	0.11525661	0.086708463	1.4238438	0.057189631	-0.014100715	1.7458764	0.062878134	0.10024496	1.588559	0.44096828	-0.078402537	1.7929116	0.48622867	0.18010183	1.5687423	0.44699123	0.043824467	1.7703704	0.46597753	0.055469995	1.620287	0.83168132	-0.13934486	1.6363067	0.82540358	0.20736907	1.6971164	0.88229767	-0.098270448	1.7075964	0.89058804	0.14700698	1.5140963	0.94516684	0.03849386	1.6392977	1.3650585	-0.15750701	1.6036456	1.3514515	0.20239992	1.5431549	1.3908715	0.012717626	1.6716803	1.0356963	-0.22628592	1.4789342	1.0578837	0.25014345	1.9150837	0.98171454	-0.17596146	1.5535847	0.83998373	0.32248386
470	1.876	1.6212726	0.033150105	-0.044854423	1.9428961	0.078975354	0.16177096	1.4964329	0.079422389	-0.062169655	1.8075107	0.088094351	0.17021424	1.5011164	0.093985014	0.023084241	1.8340142	0.11487112	0.08696226	1.4238713	0.057422387	-0.014001613	1.7622161	0.060606029	0.10090616	1.5905566	0.44053702	-0.078487026	1.7976611	0.48466257	0.17959027	1.5711601	0.44664173	0.043787025	1.7748504	0.46376441	0.054792304	1.62394	0.83099052	-0.13906058	1.6420762	0.82429045	0.20742955	1.7014228	0.88162135	-0.098750669	1.7132042	0.8895232	0.14680671	1.519376	0.94406003	0.039167546	1.6441313	1.3644801	-0.15713008	1.6084805	1.3506136	0.20275383	1.5481077	1.3900456	0.013091172	1.6789301	1.0352392	-0.22642796	1.4820099	1.0581291	0.25021876	1.9231318	0.98558571	-0.1743723	1.5528391	0.83970832	0.32404677
